<svg width="165" height="49" viewBox="0 0 165 49" fill="none" xmlns="http://www.w3.org/2000/svg">
<g clip-path="url(#clip0_4664_9145)">
<path d="M158.606 48.6955H5.76088C2.58502 48.6955 0 46.105 0 42.9338V5.75467C0 2.58225 2.58502 0.00146484 5.76088 0.00146484H158.606C161.781 0.00146484 164.457 2.58225 164.457 5.75467V42.9338C164.457 46.105 161.781 48.6955 158.606 48.6955Z" fill="#A6A6A6"/>
<path d="M163.278 42.9363C163.278 45.5122 161.19 47.5987 158.607 47.5987H5.76066C3.17929 47.5987 1.08398 45.5122 1.08398 42.9363V5.75472C1.08398 3.18003 3.17929 1.08618 5.76066 1.08618H158.606C161.19 1.08618 163.277 3.18003 163.277 5.75472L163.278 42.9363Z" fill="black"/>
<path d="M36.7019 24.0866C36.6665 20.1631 39.9167 18.2543 40.0653 18.1654C38.2246 15.4836 35.3716 15.1172 34.369 15.0879C31.9728 14.836 29.6485 16.5208 28.4278 16.5208C27.1828 16.5208 25.3032 15.1123 23.2773 15.1537C20.6703 15.1939 18.2315 16.7022 16.8939 19.0443C14.1335 23.82 16.1922 30.838 18.8369 34.6983C20.1599 36.5888 21.7058 38.6997 23.7292 38.6254C25.7088 38.5439 26.4483 37.3643 28.8372 37.3643C31.2041 37.3643 31.8985 38.6254 33.9621 38.578C36.0867 38.5439 37.4243 36.6789 38.7009 34.7713C40.2298 32.6044 40.8438 30.4704 40.8681 30.3608C40.8182 30.3438 36.7421 28.7892 36.7019 24.0866Z" fill="white"/>
<path d="M32.8039 12.5498C33.8686 11.2192 34.5971 9.409 34.3949 7.57202C32.8539 7.64019 30.9267 8.6372 29.8169 9.93855C28.835 11.0853 27.9579 12.9649 28.1845 14.7325C29.9156 14.8615 31.6929 13.8596 32.8039 12.5498Z" fill="white"/>
<path d="M65.3506 38.3521H62.584L61.0686 33.5935H55.8011L54.3575 38.3521H51.6641L56.8828 22.1516H60.1062L65.3506 38.3521ZM60.6118 31.597L59.2413 27.3667C59.0963 26.9346 58.8247 25.9169 58.4239 24.3148H58.3751C58.2156 25.0039 57.9585 26.0216 57.6052 27.3667L56.2591 31.597H60.6118Z" fill="white"/>
<path d="M78.7721 32.3665C78.7721 34.3532 78.2348 35.9236 77.1604 37.0764C76.198 38.1026 75.0029 38.6151 73.5764 38.6151C72.0366 38.6151 70.9305 38.0625 70.2568 36.9571H70.2081V43.1108H67.6109V30.5149C67.6109 29.2659 67.578 27.984 67.5146 26.6693H69.7988L69.9437 28.5209H69.9925C70.8586 27.1258 72.1731 26.4294 73.937 26.4294C75.316 26.4294 76.4672 26.9736 77.3882 28.0631C78.3116 29.1539 78.7721 30.5879 78.7721 32.3665ZM76.1261 32.4614C76.1261 31.3244 75.8703 30.3871 75.3562 29.6493C74.7946 28.88 74.0406 28.4953 73.0952 28.4953C72.4545 28.4953 71.8722 28.7095 71.352 29.132C70.8306 29.558 70.4895 30.1144 70.3299 30.8034C70.2495 31.1248 70.2093 31.3877 70.2093 31.5947V33.5424C70.2093 34.3921 70.47 35.1092 70.9914 35.6947C71.5128 36.2803 72.1901 36.5724 73.0234 36.5724C74.0016 36.5724 74.7629 36.195 75.3075 35.4427C75.8532 34.6892 76.1261 33.6958 76.1261 32.4614Z" fill="white"/>
<path d="M92.2171 32.3665C92.2171 34.3532 91.6799 35.9236 90.6042 37.0764C89.6431 38.1026 88.448 38.6151 87.0215 38.6151C85.4817 38.6151 84.3756 38.0625 83.7031 36.9571H83.6544V43.1108H81.0572V30.5149C81.0572 29.2659 81.0243 27.984 80.9609 26.6693H83.2451L83.39 28.5209H83.4388C84.3037 27.1258 85.6181 26.4294 87.3833 26.4294C88.7611 26.4294 89.9123 26.9736 90.8357 28.0631C91.7554 29.1539 92.2171 30.5879 92.2171 32.3665ZM89.5712 32.4614C89.5712 31.3244 89.3141 30.3871 88.8001 29.6493C88.2385 28.88 87.4868 28.4953 86.5403 28.4953C85.8983 28.4953 85.3172 28.7095 84.7958 29.132C84.2745 29.558 83.9346 30.1144 83.775 30.8034C83.6958 31.1248 83.6544 31.3877 83.6544 31.5947V33.5424C83.6544 34.3921 83.9151 35.1092 84.434 35.6947C84.9554 36.279 85.6327 36.5724 86.4684 36.5724C87.4466 36.5724 88.208 36.195 88.7526 35.4427C89.2983 34.6892 89.5712 33.6958 89.5712 32.4614Z" fill="white"/>
<path d="M107.249 33.8086C107.249 35.1866 106.77 36.3078 105.809 37.1733C104.753 38.1192 103.282 38.5915 101.393 38.5915C99.6485 38.5915 98.25 38.2555 97.1914 37.5823L97.7932 35.4191C98.9334 36.1081 100.185 36.4539 101.548 36.4539C102.526 36.4539 103.287 36.2323 103.834 35.7916C104.379 35.3509 104.65 34.7593 104.65 34.0216C104.65 33.3642 104.426 32.8103 103.977 32.3611C103.53 31.9119 102.783 31.4944 101.74 31.1085C98.9018 30.0506 97.4838 28.5009 97.4838 26.4631C97.4838 25.1313 97.9808 24.0393 98.9761 23.1896C99.9677 22.3387 101.291 21.9138 102.945 21.9138C104.42 21.9138 105.646 22.1707 106.624 22.6832L105.975 24.7989C105.061 24.3023 104.028 24.0539 102.872 24.0539C101.958 24.0539 101.244 24.2791 100.733 24.7271C100.3 25.1276 100.083 25.6158 100.083 26.194C100.083 26.8344 100.331 27.3639 100.828 27.7802C101.26 28.1649 102.046 28.5813 103.186 29.0305C104.581 29.5917 105.606 30.2478 106.265 31.0001C106.921 31.75 107.249 32.6886 107.249 33.8086Z" fill="white"/>
<path d="M115.837 28.6177H112.974V34.2894C112.974 35.7319 113.479 36.4526 114.49 36.4526C114.954 36.4526 115.339 36.4124 115.643 36.3321L115.715 38.303C115.203 38.4941 114.53 38.5903 113.695 38.5903C112.67 38.5903 111.868 38.2774 111.289 37.6529C110.713 37.0272 110.423 35.9778 110.423 34.5036V28.6153H108.718V26.6675H110.423V24.5286L112.974 23.7593V26.6675H115.837V28.6177Z" fill="white"/>
<path d="M128.754 32.4159C128.754 34.2115 128.24 35.6857 127.214 36.8385C126.138 38.0255 124.71 38.6171 122.931 38.6171C121.215 38.6171 119.85 38.0486 118.831 36.9116C117.813 35.7746 117.304 34.3393 117.304 32.6095C117.304 30.7993 117.828 29.3165 118.879 28.1637C119.928 27.0096 121.343 26.4326 123.123 26.4326C124.838 26.4326 126.219 27.0011 127.26 28.1393C128.257 29.2435 128.754 30.669 128.754 32.4159ZM126.059 32.4999C126.059 31.4225 125.829 30.4986 125.362 29.728C124.818 28.7955 124.039 28.3305 123.03 28.3305C121.986 28.3305 121.193 28.7967 120.649 29.728C120.182 30.4998 119.952 31.4384 119.952 32.5486C119.952 33.6259 120.182 34.5499 120.649 35.3193C121.21 36.2518 121.995 36.7168 123.007 36.7168C123.999 36.7168 124.777 36.242 125.339 35.2949C125.818 34.5097 126.059 33.576 126.059 32.4999Z" fill="white"/>
<path d="M137.196 28.9518C136.939 28.9043 136.665 28.88 136.377 28.88C135.463 28.88 134.757 29.2245 134.26 29.9147C133.827 30.5234 133.61 31.2928 133.61 32.2216V38.351H131.014L131.039 30.3481C131.039 29.0017 131.006 27.7758 130.941 26.6705H133.204L133.299 28.9055H133.371C133.645 28.1374 134.077 27.519 134.669 27.0552C135.248 26.6376 135.873 26.4294 136.546 26.4294C136.786 26.4294 137.003 26.4465 137.196 26.4769V28.9518Z" fill="white"/>
<path d="M148.811 31.9586C148.811 32.4236 148.78 32.8156 148.716 33.1358H140.924C140.955 34.2898 141.331 35.1724 142.055 35.7811C142.711 36.3252 143.56 36.5979 144.603 36.5979C145.757 36.5979 146.809 36.4141 147.756 36.0452L148.163 37.8469C147.056 38.329 145.751 38.5688 144.244 38.5688C142.431 38.5688 141.008 38.0356 139.973 36.9704C138.94 35.9052 138.422 34.4749 138.422 32.6805C138.422 30.919 138.903 29.4521 139.867 28.2822C140.875 27.0332 142.239 26.4087 143.954 26.4087C145.639 26.4087 146.914 27.0332 147.78 28.2822C148.466 29.2743 148.811 30.5014 148.811 31.9586ZM146.334 31.2854C146.351 30.516 146.182 29.8514 145.83 29.2902C145.38 28.5683 144.69 28.2079 143.76 28.2079C142.911 28.2079 142.22 28.5598 141.693 29.2658C141.26 29.827 141.003 30.5002 140.924 31.2842L146.334 31.2854Z" fill="white"/>
<path d="M59.7527 12.1867C59.7527 13.6195 59.3226 14.6981 58.4638 15.4224C57.6683 16.0907 56.5378 16.4255 55.0736 16.4255C54.3475 16.4255 53.7262 16.3938 53.2061 16.3305V8.50174C53.8846 8.39218 54.6155 8.33618 55.4049 8.33618C56.7998 8.33618 57.8511 8.6393 58.5601 9.24554C59.3543 9.93091 59.7527 10.9109 59.7527 12.1867ZM58.4066 12.222C58.4066 11.2931 58.1605 10.581 57.6683 10.0843C57.1762 9.58884 56.4574 9.3405 55.5109 9.3405C55.1089 9.3405 54.7666 9.36728 54.4827 9.42328V15.3749C54.6399 15.3993 54.9274 15.4102 55.3452 15.4102C56.3222 15.4102 57.0763 15.1387 57.6074 14.5958C58.1386 14.0529 58.4066 13.2616 58.4066 12.222Z" fill="white"/>
<path d="M66.8901 13.4377C66.8901 14.3203 66.6379 15.0434 66.1336 15.6107C65.6049 16.1938 64.9044 16.4847 64.0297 16.4847C63.1867 16.4847 62.5155 16.206 62.0148 15.646C61.5154 15.0872 61.2656 14.3824 61.2656 13.5327C61.2656 12.644 61.5227 11.9148 62.0392 11.3487C62.5557 10.7827 63.2501 10.499 64.1247 10.499C64.9677 10.499 65.6451 10.7778 66.1579 11.3366C66.6452 11.8795 66.8901 12.5807 66.8901 13.4377ZM65.5659 13.4791C65.5659 12.9496 65.4514 12.4955 65.2236 12.1169C64.9556 11.6592 64.5743 11.4303 64.0785 11.4303C63.5656 11.4303 63.1758 11.6592 62.9078 12.1169C62.6787 12.4955 62.5654 12.9569 62.5654 13.5022C62.5654 14.0318 62.68 14.4858 62.9078 14.8644C63.1843 15.3222 63.5692 15.551 64.0663 15.551C64.5536 15.551 64.9361 15.3185 65.2114 14.8523C65.4477 14.4664 65.5659 14.0086 65.5659 13.4791Z" fill="white"/>
<path d="M76.46 10.6155L74.6631 16.3541H73.4936L72.7493 13.8622C72.5605 13.2401 72.407 12.6217 72.2876 12.0081H72.2645C72.1536 12.6387 72.0001 13.2559 71.8028 13.8622L71.0122 16.3541H69.8293L68.1396 10.6155H69.4517L70.1009 13.3436C70.2581 13.9888 70.3872 14.6035 70.4908 15.1854H70.5139C70.6089 14.7058 70.7661 14.0947 70.9878 13.3557L71.8028 10.6167H72.8431L73.624 13.2973C73.8128 13.951 73.9663 14.5804 74.0845 15.1866H74.1198C74.2063 14.5962 74.3366 13.9668 74.5096 13.2973L75.2064 10.6167H76.46V10.6155Z" fill="white"/>
<path d="M83.0785 16.3533H81.8019V13.0664C81.8019 12.0536 81.4169 11.5471 80.6446 11.5471C80.2657 11.5471 79.9599 11.6859 79.7224 11.9647C79.4873 12.2435 79.3679 12.5722 79.3679 12.9483V16.352H78.0912V12.2544C78.0912 11.7504 78.0754 11.2039 78.0449 10.6122H79.1669L79.2266 11.5094H79.2619C79.4105 11.2306 79.6322 11.0006 79.9234 10.8167C80.2694 10.6025 80.6567 10.4941 81.0807 10.4941C81.6167 10.4941 82.0625 10.667 82.417 11.0139C82.858 11.4388 83.0785 12.073 83.0785 12.9155V16.3533Z" fill="white"/>
<path d="M86.5997 16.3537H85.3242V7.98193H86.5997V16.3537Z" fill="white"/>
<path d="M94.1157 13.4377C94.1157 14.3203 93.8635 15.0434 93.3591 15.6107C92.8304 16.1938 92.1288 16.4847 91.2553 16.4847C90.4111 16.4847 89.7399 16.206 89.2404 15.646C88.7409 15.0872 88.4912 14.3824 88.4912 13.5327C88.4912 12.644 88.7483 11.9148 89.2648 11.3487C89.7813 10.7827 90.4757 10.499 91.3491 10.499C92.1933 10.499 92.8694 10.7778 93.3835 11.3366C93.8708 11.8795 94.1157 12.5807 94.1157 13.4377ZM92.7902 13.4791C92.7902 12.9496 92.6757 12.4955 92.4479 12.1169C92.1811 11.6592 91.7986 11.4303 91.304 11.4303C90.79 11.4303 90.4001 11.6592 90.1333 12.1169C89.9043 12.4955 89.791 12.9569 89.791 13.5022C89.791 14.0318 89.9055 14.4858 90.1333 14.8644C90.4099 15.3222 90.7948 15.551 91.2919 15.551C91.7791 15.551 92.1604 15.3185 92.4357 14.8523C92.6733 14.4664 92.7902 14.0086 92.7902 13.4791Z" fill="white"/>
<path d="M100.295 16.3545H99.1482L99.0532 15.6935H99.0178C98.6256 16.2206 98.0664 16.4847 97.3404 16.4847C96.7983 16.4847 96.3597 16.3107 96.0296 15.9649C95.7299 15.6509 95.5801 15.2601 95.5801 14.7963C95.5801 14.0951 95.8724 13.5607 96.4608 13.1906C97.048 12.8205 97.874 12.6391 98.9374 12.6476V12.5405C98.9374 11.7845 98.5403 11.4072 97.7448 11.4072C97.1784 11.4072 96.6789 11.5496 96.2477 11.832L95.9882 10.9945C96.5217 10.6646 97.1808 10.499 97.958 10.499C99.4588 10.499 100.212 11.2903 100.212 12.8729V14.9862C100.212 15.5596 100.24 16.0161 100.295 16.3545ZM98.9691 14.3824V13.4974C97.5609 13.473 96.8568 13.8589 96.8568 14.6538C96.8568 14.9533 96.9372 15.1773 97.1016 15.327C97.2661 15.4768 97.4756 15.551 97.7253 15.551C98.0055 15.551 98.2674 15.4622 98.5062 15.2856C98.7462 15.1079 98.8936 14.8827 98.9484 14.6064C98.9618 14.5443 98.9691 14.4688 98.9691 14.3824Z" fill="white"/>
<path d="M107.549 16.3537H106.416L106.357 15.4321H106.321C105.96 16.1333 105.343 16.4839 104.477 16.4839C103.785 16.4839 103.209 16.2124 102.752 15.6695C102.295 15.1266 102.067 14.4217 102.067 13.5562C102.067 12.6273 102.315 11.875 102.812 11.3004C103.293 10.7648 103.882 10.497 104.584 10.497C105.355 10.497 105.895 10.7563 106.202 11.2761H106.226V7.98193H107.504V14.8076C107.504 15.3664 107.519 15.8813 107.549 16.3537ZM106.226 13.9336V12.9767C106.226 12.8112 106.214 12.6773 106.191 12.575C106.119 12.2682 105.964 12.0101 105.729 11.802C105.492 11.5938 105.205 11.4891 104.875 11.4891C104.399 11.4891 104.026 11.6778 103.752 12.0564C103.48 12.435 103.343 12.9183 103.343 13.5087C103.343 14.076 103.473 14.5362 103.735 14.8904C104.012 15.2678 104.384 15.4565 104.851 15.4565C105.27 15.4565 105.605 15.2994 105.86 14.9841C106.106 14.6932 106.226 14.3426 106.226 13.9336Z" fill="white"/>
<path d="M118.467 13.4377C118.467 14.3203 118.215 15.0434 117.711 15.6107C117.182 16.1938 116.483 16.4847 115.607 16.4847C114.765 16.4847 114.094 16.206 113.592 15.646C113.093 15.0872 112.843 14.3824 112.843 13.5327C112.843 12.644 113.1 11.9148 113.616 11.3487C114.133 10.7827 114.827 10.499 115.703 10.499C116.545 10.499 117.223 10.7778 117.735 11.3366C118.222 11.8795 118.467 12.5807 118.467 13.4377ZM117.144 13.4791C117.144 12.9496 117.03 12.4955 116.802 12.1169C116.533 11.6592 116.153 11.4303 115.656 11.4303C115.144 11.4303 114.754 11.6592 114.485 12.1169C114.256 12.4955 114.143 12.9569 114.143 13.5022C114.143 14.0318 114.257 14.4858 114.485 14.8644C114.761 15.3222 115.146 15.551 115.643 15.551C116.131 15.551 116.514 15.3185 116.79 14.8523C117.025 14.4664 117.144 14.0086 117.144 13.4791Z" fill="white"/>
<path d="M125.332 16.3533H124.057V13.0664C124.057 12.0536 123.672 11.5471 122.898 11.5471C122.519 11.5471 122.214 11.6859 121.977 11.9647C121.741 12.2435 121.623 12.5722 121.623 12.9483V16.352H120.345V12.2544C120.345 11.7504 120.33 11.2039 120.3 10.6122H121.421L121.48 11.5094H121.516C121.665 11.2306 121.887 11.0006 122.177 10.8167C122.524 10.6025 122.91 10.4941 123.336 10.4941C123.87 10.4941 124.316 10.667 124.671 11.0139C125.113 11.4388 125.332 12.073 125.332 12.9155V16.3533Z" fill="white"/>
<path d="M133.924 11.5728H132.518V14.3605C132.518 15.069 132.768 15.4233 133.263 15.4233C133.492 15.4233 133.682 15.4038 133.832 15.3636L133.865 16.3314C133.612 16.4264 133.281 16.4738 132.873 16.4738C132.369 16.4738 131.976 16.3205 131.692 16.0137C131.407 15.7069 131.266 15.1907 131.266 14.4664V11.5728H130.427V10.6172H131.266V9.56537L132.517 9.18799V10.6159H133.923L133.924 11.5728Z" fill="white"/>
<path d="M140.683 16.3537H139.405V13.0912C139.405 12.0625 139.02 11.5476 138.249 11.5476C137.657 11.5476 137.252 11.8458 137.03 12.4423C136.993 12.5677 136.971 12.7211 136.971 12.9013V16.3524H135.695V7.98193H136.971V11.4404H136.995C137.397 10.8111 137.973 10.497 138.72 10.497C139.249 10.497 139.686 10.6698 140.033 11.0168C140.466 11.4489 140.683 12.0917 140.683 12.9414V16.3537Z" fill="white"/>
<path d="M147.654 13.2134C147.654 13.4423 147.637 13.6346 147.607 13.7917H143.778C143.795 14.359 143.978 14.7911 144.332 15.0906C144.656 15.3584 145.074 15.4923 145.586 15.4923C146.152 15.4923 146.669 15.4022 147.134 15.2209L147.334 16.1071C146.789 16.3433 146.149 16.4613 145.407 16.4613C144.517 16.4613 143.817 16.1996 143.31 15.6761C142.801 15.1527 142.549 14.4503 142.549 13.5689C142.549 12.7034 142.784 11.9827 143.258 11.4081C143.752 10.7946 144.421 10.4878 145.265 10.4878C146.091 10.4878 146.719 10.7946 147.143 11.4081C147.485 11.8951 147.654 12.4976 147.654 13.2134ZM146.436 12.8835C146.446 12.5049 146.362 12.1787 146.189 11.9036C145.967 11.5493 145.63 11.3716 145.173 11.3716C144.756 11.3716 144.416 11.5445 144.157 11.8914C143.945 12.1677 143.819 12.4976 143.778 12.8835H146.436Z" fill="white"/>
</g>
<defs>
<clipPath id="clip0_4664_9145">
<rect width="164.457" height="48.6941" fill="white"/>
</clipPath>
</defs>
</svg>
