<svg width="145" height="36" viewBox="0 0 145 36" fill="none" xmlns="http://www.w3.org/2000/svg">
<path d="M122.355 15.0065C122.355 14.7198 122.252 14.6364 121.976 14.644C121.389 14.6579 120.802 14.644 120.208 14.644C119.078 14.644 119.078 14.644 119.014 15.8325C117.576 15.0722 116.132 14.4798 114.505 14.6933C112.879 14.9067 111.484 15.494 110.524 16.8834C109.182 18.8285 109.326 22.4407 110.807 24.1635C111.621 25.1083 112.674 25.6438 113.876 25.861C115.693 26.1907 117.461 26.1503 118.984 24.8708C119.141 25.174 118.836 25.6514 119.441 25.6286C120.281 25.5971 121.124 25.616 121.967 25.6223C122.22 25.6223 122.356 25.5503 122.355 25.256C122.347 21.8349 122.347 18.4184 122.355 15.0065ZM117.629 22.6567C116.113 23.5648 114.027 23.2314 113.004 21.9178C112.632 21.4417 112.458 20.9466 112.457 20.5702C112.439 19.3602 112.927 18.639 113.706 18.0984C114.872 17.2901 116.568 17.2939 117.748 18.0807C119.523 19.2705 119.47 21.5554 117.629 22.6567Z" fill="#FE713E"/>
<path d="M107.712 22.0383C106.871 22.0699 106.028 22.056 105.186 22.0383C105.072 22.0277 104.958 22.0532 104.859 22.1113C104.761 22.1693 104.683 22.257 104.637 22.3617C104.132 23.2218 103.171 23.5641 102.09 23.3052C101.292 23.1132 100.74 22.4021 100.626 21.4523C100.582 21.086 100.664 20.9332 101.078 20.9471C102.173 20.9749 103.271 20.9572 104.362 20.9559H106.535C108.222 20.9559 108.257 20.9559 108.126 19.2521C107.973 17.2779 107.236 15.5716 105.355 14.671C103.382 13.725 101.349 13.749 99.4692 14.9363C97.029 16.4772 96.1196 20.0895 97.3839 22.877C98.556 25.4599 101.62 26.7141 104.592 25.8047C106.273 25.2906 107.546 24.3156 108.087 22.565C108.198 22.2177 108.171 22.0181 107.712 22.0383ZM100.625 18.3667C100.751 17.4535 101.674 16.6578 102.637 16.6565C103.679 16.6565 104.496 17.3752 104.602 18.3692C104.63 18.6218 104.587 18.7645 104.279 18.7481C103.733 18.7279 103.186 18.7481 102.637 18.7481C102.071 18.7481 101.5 18.7342 100.941 18.7481C100.634 18.7645 100.591 18.6256 100.625 18.3667Z" fill="#FE713E"/>
<path d="M136.479 15.6628C138.332 13.7682 141.618 13.6962 143.518 15.4594C144.128 16.0253 144.477 16.6921 144.465 17.5712C144.432 20.0695 144.442 22.5678 144.465 25.0661C144.465 25.498 144.368 25.6496 143.917 25.6269C143.174 25.589 142.428 25.5991 141.685 25.6269C141.297 25.6395 141.18 25.5006 141.186 25.1217C141.203 23.1298 141.196 21.1393 141.186 19.1488C141.186 17.8238 140.564 17.1772 139.235 17.109C139.02 17.0976 138.804 17.0988 138.588 17.109C137.266 17.1557 136.484 17.94 136.476 19.2561C136.465 21.1683 136.451 23.0818 136.488 24.9941C136.498 25.5321 136.327 25.6572 135.826 25.6256C135.105 25.5839 134.379 25.6054 133.654 25.6256C133.325 25.6256 133.164 25.565 133.166 25.1772C133.18 21.8015 133.18 18.4246 133.166 15.0464C133.166 14.7408 133.256 14.6385 133.565 14.646C134.323 14.665 135.095 14.694 135.855 14.6385C136.404 14.598 136.55 14.8052 136.474 15.2927C136.468 15.416 136.469 15.5397 136.479 15.6628Z" fill="#FE713E"/>
<path d="M76.6043 15.744C78.6567 13.7471 81.9672 13.8292 83.887 15.8374C84.1209 16.0729 84.3054 16.3528 84.4297 16.6605C84.5539 16.9683 84.6155 17.2978 84.6107 17.6297C84.6107 20.1103 84.5955 22.5896 84.6195 25.069C84.6195 25.5237 84.4856 25.631 84.0562 25.6121C83.2984 25.5792 82.5292 25.5843 81.7663 25.6121C81.4051 25.626 81.3066 25.5211 81.3091 25.1587C81.3268 23.0885 81.3179 21.0197 81.3179 18.9496C81.3179 17.9391 80.766 17.2659 79.748 17.1257C78.9725 17.0196 78.2172 17.1371 77.5629 17.5969C76.9504 18.0288 76.5525 18.5504 76.5828 19.3929C76.6397 21.266 76.5828 23.1416 76.6094 25.0159C76.6094 25.4517 76.5348 25.6474 76.0397 25.6159C75.2592 25.5717 74.4736 25.5931 73.6905 25.6096C73.3911 25.6159 73.2812 25.5287 73.2812 25.2155C73.2914 21.8179 73.2914 18.4204 73.2812 15.0228C73.2812 14.6856 73.4265 14.6439 73.7044 14.6527C74.4685 14.6666 75.2339 14.6868 75.9955 14.6527C76.4717 14.6275 76.6902 14.7487 76.6056 15.2501C76.5935 15.4145 76.5931 15.5795 76.6043 15.744Z" fill="#07090F"/>
<path d="M56.3077 18.29C56.3077 16.0455 56.3242 13.7999 56.2951 11.5567C56.2888 11.0805 56.4366 10.9934 56.8774 10.9972C59.3428 11.0174 61.8095 11.0174 64.2775 10.9972C64.6728 10.9972 64.8345 11.0679 64.7991 11.5024C64.7659 12.0071 64.7659 12.5134 64.7991 13.018C64.8156 13.3527 64.7031 13.45 64.3697 13.4462C62.9412 13.4285 61.5115 13.4538 60.083 13.4285C59.6876 13.4285 59.5777 13.5435 59.6017 13.9211C59.6358 14.5252 59.6358 15.1307 59.6017 15.7348C59.5752 16.163 59.6838 16.3007 60.1398 16.2906C61.5291 16.2565 62.9185 16.2906 64.3078 16.2704C64.6716 16.2704 64.8257 16.3335 64.8029 16.7389C64.765 17.4008 64.7751 18.0664 64.8029 18.7295C64.8156 19.049 64.7006 19.116 64.4038 19.1084C62.9564 19.0945 61.5064 19.1147 60.059 19.0932C59.6889 19.0932 59.6017 19.1968 59.6055 19.553C59.6232 21.4071 59.6055 23.2613 59.622 25.1103C59.622 25.4779 59.5474 25.6156 59.1471 25.6004C58.404 25.5631 57.6596 25.5631 56.9165 25.6004C56.4429 25.6282 56.2939 25.517 56.3002 25.0106C56.3267 22.7763 56.3077 20.5344 56.3077 18.29Z" fill="#07090F"/>
<path d="M87.4447 18.2869C87.4447 16.0438 87.4548 13.7994 87.4346 11.5562C87.4346 11.1331 87.5205 10.9714 87.9777 10.9967C88.7202 11.0371 89.4644 11.0371 90.2069 10.9967C90.6578 10.9727 90.7551 11.123 90.7526 11.5512C90.7349 15.1015 90.7526 18.6532 90.7311 22.2036C90.7311 22.7227 90.841 22.9046 91.3942 22.8818C92.5663 22.8364 93.7422 22.8907 94.9155 22.8566C95.3715 22.844 95.4877 22.9917 95.4612 23.4199C95.4245 24.0034 95.4384 24.5907 95.4612 25.1755C95.4713 25.49 95.3917 25.6252 95.0418 25.6239C92.6547 25.6113 90.2676 25.6113 87.8804 25.6239C87.4851 25.6239 87.4409 25.461 87.4421 25.1338C87.4497 22.8528 87.4447 20.5705 87.4447 18.2869Z" fill="#FE713E"/>
<path d="M127.529 15.8062C128.649 14.5431 130.145 14.259 131.557 14.936C131.756 15.0319 131.754 15.1216 131.671 15.2883C131.53 15.5662 131.41 15.8542 131.277 16.1358C131.143 16.4175 131.068 16.7674 130.851 16.9543C130.605 17.1639 130.332 16.8166 130.053 16.7674C129.359 16.6411 129.026 16.8027 128.763 17.4582C128.564 17.9462 128.463 18.4684 128.465 18.9954C128.476 21.0238 128.455 23.0535 128.481 25.0807C128.488 25.5341 128.346 25.6402 127.918 25.6263C127 25.596 126.079 25.6023 125.161 25.6263C124.797 25.6351 124.7 25.5126 124.701 25.159C124.714 21.8043 124.714 18.4497 124.701 15.0951C124.701 14.7276 124.807 14.6252 125.165 14.6417C125.751 14.677 126.338 14.677 126.924 14.6417C127.403 14.6063 127.618 14.7389 127.533 15.2391C127.519 15.4278 127.518 15.6173 127.529 15.8062Z" fill="#FE713E"/>
<path d="M70.4461 20.156C70.4461 21.798 70.4271 23.4399 70.4587 25.0755C70.4675 25.5328 70.3223 25.6313 69.8979 25.6123C69.1401 25.5795 68.3696 25.5883 67.6067 25.6123C67.2619 25.6224 67.1306 25.5429 67.1318 25.1639C67.147 21.806 67.147 18.448 67.1318 15.09C67.1318 14.7755 67.1899 14.6391 67.5436 14.6504C68.3658 14.677 69.1855 14.6808 70.0103 14.6504C70.4006 14.6353 70.4536 14.7881 70.4511 15.1228C70.4385 16.7976 70.4461 18.4825 70.4461 20.156Z" fill="#07090F"/>
<path d="M22.1085 0C23.5155 0.94854 25.0362 1.7051 26.4874 2.58038C30.503 5.00373 34.5174 7.43002 38.5305 9.85926C38.6113 9.90726 38.6871 9.96157 38.821 10.0487C37.2257 10.972 35.6709 11.8687 34.1225 12.7743C33.8408 12.9385 33.6829 12.7162 33.501 12.6064C29.818 10.3876 26.1409 8.1609 22.4697 5.92616C22.0782 5.68745 21.8079 5.6925 21.4264 5.91985C19.9878 6.78377 18.5214 7.61232 17.0134 8.49013L23.1442 12.0266C22.7779 12.3765 22.3383 12.5508 21.9417 12.7845C20.8644 13.416 19.7718 14.0298 18.6995 14.679C18.5841 14.7624 18.4453 14.8073 18.3029 14.8073C18.1605 14.8073 18.0218 14.7624 17.9063 14.679C16.152 13.6522 14.3787 12.6581 12.6332 11.6199C12.2366 11.3837 11.9524 11.4103 11.5747 11.6326C9.36444 12.9246 7.13897 14.1877 4.93497 15.4949C4.57627 15.7071 4.3224 15.6907 3.98011 15.4848C2.85854 14.8116 1.71549 14.1713 0.582546 13.5145C-0.151278 13.0876 -0.152541 12.7352 0.571179 12.3159C7.47577 8.31962 14.3766 4.32253 21.2736 0.3246C21.4403 0.227346 21.5944 0.108621 21.7548 0H22.1085Z" fill="#FE713E"/>
<path d="M43.878 20.0885C43.878 21.2467 43.8881 22.3165 43.8717 23.3863C43.8717 23.7652 43.5155 23.8701 43.2528 24.0178C40.5861 25.5663 37.9185 27.1123 35.2502 28.6557C31.2312 30.9835 27.2072 33.2999 23.197 35.6428C22.3849 36.1177 21.6574 36.1203 20.8402 35.6428C14.104 31.7476 7.35896 27.8659 0.605091 23.9976C0.188289 23.7589 -0.00495566 23.4924 9.64856e-05 22.9809C0.0278833 20.4447 0.0127271 17.9073 0.0127271 15.2764C0.997895 15.8435 1.90728 16.3676 2.82551 16.8956C3.02381 17.0105 2.95181 17.2101 2.95181 17.3743C2.95181 18.5653 2.96571 19.7564 2.95181 20.9461C2.95181 21.2606 3.04907 21.4236 3.32441 21.5777C9.41308 25.0712 15.4975 28.5736 21.5778 32.0849C21.9087 32.2756 22.1335 32.2187 22.4291 32.0533C29.4448 28.1294 36.4627 24.2098 43.4826 20.2944C43.5824 20.2388 43.6885 20.1883 43.878 20.0885Z" fill="#051935"/>
<path d="M18.2656 24.1661L23.2433 21.2852C28.8848 18.0173 34.523 14.7473 40.1578 11.4752C40.4799 11.2882 40.706 11.2478 41.042 11.4549C42.1067 12.1054 43.2017 12.7079 44.2816 13.3331C45.0256 13.765 45.0395 14.1086 44.3132 14.5292C37.5265 18.4665 30.7394 22.4013 23.9518 26.3335C23.6599 26.5164 23.3225 26.6134 22.978 26.6134C22.6336 26.6134 22.2961 26.5164 22.0042 26.3335C20.7892 25.6325 19.5754 24.924 18.2656 24.1661Z" fill="#051935"/>
<path d="M12.4482 20.2665C14.0258 19.366 15.5149 18.5248 16.9952 17.6697C20.5443 15.6186 24.0896 13.5602 27.6312 11.4948C27.9987 11.28 28.2627 11.2624 28.629 11.4884C29.8706 12.2614 31.1336 13.0041 32.4636 13.7985L29.5662 15.4784C25.7329 17.7 21.8907 19.9091 18.0725 22.156C17.1973 22.6701 16.4218 22.7168 15.5616 22.156C14.584 21.5132 13.5622 20.9372 12.4482 20.2665Z" fill="#051935"/>
<path d="M16.4641 15.865C14.5696 16.9638 12.7167 18.0324 10.8727 19.1097C10.7942 19.1646 10.7007 19.1941 10.6049 19.1941C10.5091 19.1941 10.4156 19.1646 10.3371 19.1097C9.01094 18.3368 7.68476 17.5739 6.35352 16.8085C6.38888 16.59 6.57076 16.5748 6.69327 16.5028C8.37732 15.5227 10.0614 14.5447 11.7454 13.5688C11.926 13.464 12.0751 13.3276 12.3214 13.4715C13.6829 14.271 15.052 15.0516 16.4641 15.865Z" fill="#051935"/>
<path d="M70.4457 11.8005C70.4457 12.7086 69.6348 13.4323 68.5991 13.4424C67.5634 13.4525 66.6604 12.6846 66.673 11.8005C66.6856 10.9163 67.5394 10.1989 68.5675 10.1939C69.5956 10.1888 70.4419 10.91 70.4457 11.8005Z" fill="#1A2249"/>
</svg>
