<svg width="166" height="49" viewBox="0 0 166 49" fill="none" xmlns="http://www.w3.org/2000/svg">
<g clip-path="url(#clip0_4664_9136)">
<path d="M159.248 48.9991H6.12781C2.7591 48.9991 0.00292969 46.2429 0.00292969 42.8742V6.12489C0.00292969 2.75618 2.7591 0 6.12781 0H159.248C162.616 0 165.373 2.75618 165.373 6.12489V42.8742C165.373 46.2429 162.616 48.9991 159.248 48.9991Z" fill="#100F0D"/>
<path d="M159.248 0H6.12781C2.7591 0 0.00292969 2.75618 0.00292969 6.12489V42.8742C0.00292969 46.2429 2.7591 48.9991 6.12781 48.9991H159.248C162.616 48.9991 165.373 46.2429 165.373 42.8742V6.12489C165.373 2.75618 162.616 0 159.248 0ZM159.248 0.979485C162.085 0.979485 164.393 3.28786 164.393 6.12489V42.8742C164.393 45.7112 162.085 48.0196 159.248 48.0196H6.12781C3.29079 48.0196 0.983426 45.7112 0.983426 42.8742V6.12489C0.983426 3.28786 3.29079 0.979485 6.12781 0.979485H159.248Z" fill="#A2A2A1"/>
<path d="M130.996 36.748H133.282V21.4333H130.996V36.748ZM151.584 26.9504L148.964 33.5897H148.886L146.166 26.9504H143.704L147.783 36.2299L145.457 41.3919H147.841L154.126 26.9509L151.584 26.9504ZM138.621 35.0085C137.874 35.0085 136.829 34.6338 136.829 33.7079C136.829 32.5259 138.13 32.0728 139.252 32.0728C140.256 32.0728 140.73 32.2891 141.34 32.5848C141.163 34.0036 139.941 35.0085 138.621 35.0085ZM138.898 26.6155C137.243 26.6155 135.529 27.3447 134.82 28.9602L136.848 29.8072C137.282 28.9602 138.089 28.6846 138.937 28.6846C140.119 28.6846 141.321 29.3933 141.34 30.6546V30.812C140.926 30.5756 140.039 30.2211 138.956 30.2211C136.769 30.2211 134.543 31.4226 134.543 33.6686C134.543 35.7177 136.336 37.0378 138.345 37.0378C139.881 37.0378 140.73 36.3483 141.261 35.5402H141.34V36.723H143.548V30.8512C143.548 28.1323 141.517 26.6155 138.898 26.6155ZM124.771 28.8147H121.52V23.5656H124.771C126.48 23.5656 127.45 24.9801 127.45 26.1901C127.45 27.3768 126.48 28.8147 124.771 28.8147ZM124.712 21.4337H119.235V36.7484H121.52V30.9466H124.712C127.245 30.9466 129.736 29.1129 129.736 26.1906C129.736 23.2689 127.245 21.4337 124.712 21.4337ZM94.8461 35.0111C93.2669 35.0111 91.9453 33.6884 91.9453 31.8735C91.9453 30.0375 93.2669 28.6962 94.8461 28.6962C96.4051 28.6962 97.6286 30.0375 97.6286 31.8735C97.6286 33.6884 96.4051 35.0111 94.8461 35.0111ZM97.4707 27.8077H97.3917C96.8788 27.1961 95.8915 26.6435 94.6489 26.6435C92.0434 26.6435 89.6557 28.9331 89.6557 31.8735C89.6557 34.7939 92.0434 37.0634 94.6489 37.0634C95.8915 37.0634 96.8787 36.5106 97.3917 35.8795H97.4707V36.6289C97.4707 38.6228 96.4051 39.688 94.6882 39.688C93.2875 39.688 92.4191 38.6816 92.0635 37.8332L90.0707 38.6619C90.6425 40.0428 92.1617 41.7407 94.6882 41.7407C97.3727 41.7407 99.6422 40.1615 99.6422 36.313V26.9591H97.4708L97.4707 27.8077ZM101.221 36.7476H103.509V21.4328H101.221V36.7476ZM106.884 31.6955C106.826 29.6825 108.444 28.6565 109.608 28.6565C110.516 28.6565 111.285 29.1106 111.543 29.7614L106.884 31.6955ZM113.989 29.9585C113.555 28.7948 112.233 26.6435 109.529 26.6435C106.845 26.6435 104.615 28.7551 104.615 31.8535C104.615 34.7743 106.826 37.0635 109.785 37.0635C112.173 37.0635 113.555 35.6036 114.128 34.7546L112.351 33.5703C111.759 34.4389 110.95 35.0111 109.785 35.0111C108.621 35.0111 107.792 34.4782 107.26 33.4322L114.226 30.551L113.989 29.9585ZM58.4877 28.2421V30.4524H63.7765C63.6186 31.6956 63.2042 32.6033 62.5726 33.2349C61.8027 34.0043 60.5988 34.8532 58.4876 34.8532C55.2313 34.8532 52.6857 32.2286 52.6857 28.9723C52.6857 25.7161 55.2313 23.0911 58.4876 23.0911C60.2441 23.0911 61.5266 23.782 62.4739 24.6701L64.0334 23.1107C62.7108 21.8478 60.9547 20.8809 58.4876 20.8809C54.0269 20.8809 50.2773 24.5121 50.2773 28.9723C50.2773 33.4321 54.0269 37.0635 58.4876 37.0635C60.8949 37.0635 62.7109 36.274 64.1315 34.7939C65.592 33.3335 66.046 31.2812 66.046 29.6232C66.046 29.1107 66.0062 28.637 65.9273 28.2421H58.4877ZM72.0596 35.0111C70.4804 35.0111 69.1186 33.7085 69.1186 31.8535C69.1186 29.9787 70.4804 28.6963 72.0596 28.6963C73.6381 28.6963 74.9999 29.9787 74.9999 31.8535C74.9999 33.7085 73.6381 35.0111 72.0596 35.0111ZM72.0596 26.6435C69.1774 26.6435 66.8294 28.834 66.8294 31.8535C66.8294 34.8532 69.1774 37.0635 72.0596 37.0635C74.9406 37.0635 77.2891 34.8532 77.2891 31.8535C77.2891 28.834 74.9406 26.6435 72.0596 26.6435ZM83.4678 35.0111C81.8897 35.0111 80.5275 33.7085 80.5275 31.8535C80.5275 29.9787 81.8898 28.6963 83.4678 28.6963C85.0469 28.6963 86.4082 29.9787 86.4082 31.8535C86.4082 33.7085 85.0469 35.0111 83.4678 35.0111ZM83.4678 26.6435C80.5867 26.6435 78.2387 28.834 78.2387 31.8535C78.2387 34.8532 80.5867 37.0635 83.4678 37.0635C86.3499 37.0635 88.698 34.8532 88.698 31.8535C88.698 28.834 86.3499 26.6435 83.4678 26.6435Z" fill="white"/>
<path d="M25.3777 23.7936L12.3369 37.6356C12.3374 37.6384 12.3384 37.6408 12.3388 37.6438C12.7388 39.1469 14.1117 40.2536 15.741 40.2536C16.3923 40.2536 17.0038 40.0775 17.5283 39.7684L17.5699 39.744L32.2498 31.273L25.3777 23.7936Z" fill="#EB3131"/>
<path d="M38.5726 21.4373L38.5601 21.4287L32.2223 17.7546L25.082 24.1084L32.2471 31.2726L38.5514 27.635C39.6567 27.0383 40.4071 25.8731 40.4071 24.5295C40.4071 23.1954 39.6669 22.0359 38.5726 21.4373Z" fill="#F6B60B"/>
<path d="M12.3354 11.3647C12.257 11.6538 12.2158 11.9567 12.2158 12.2711V36.7311C12.2158 37.045 12.2565 37.3489 12.3359 37.6369L25.8269 24.1487L12.3354 11.3647Z" fill="#5778C5"/>
<path d="M25.4742 24.5022L32.2246 17.7539L17.5612 9.25225C17.0282 8.93302 16.4061 8.74878 15.7405 8.74878C14.1112 8.74878 12.7365 9.85753 12.3364 11.3624C12.3359 11.3638 12.3359 11.3648 12.3359 11.3661L25.4742 24.5022Z" fill="#3BAD49"/>
<path d="M58.0588 11.9811H54.4853V12.8654H57.1631C57.0903 13.5871 56.8032 14.1536 56.319 14.5651C55.8347 14.9767 55.2164 15.1834 54.4853 15.1834C53.6833 15.1834 53.0038 14.904 52.4469 14.3489C51.9013 13.7824 51.6239 13.0818 51.6239 12.2377C51.6239 11.3937 51.9013 10.6931 52.4469 10.1266C53.0038 9.57157 53.6833 9.294 54.4853 9.294C54.8969 9.294 55.2892 9.36481 55.649 9.51988C56.0089 9.67484 56.2979 9.89117 56.5237 10.1688L57.2032 9.48926C56.895 9.13892 56.5046 8.87101 56.0203 8.67576C55.536 8.4805 55.0308 8.38678 54.4852 8.38678C53.4153 8.38678 52.5081 8.75807 51.7673 9.49885C51.0266 10.2414 50.6553 11.1564 50.6553 12.2377C50.6553 13.3191 51.0266 14.236 51.7673 14.9768C52.5081 15.7175 53.4153 16.0889 54.4852 16.0889C55.6087 16.0889 56.5045 15.729 57.1936 14.9978C57.8003 14.3892 58.1104 13.5662 58.1104 12.5364C58.1104 12.3622 58.0894 12.1764 58.0588 11.9811ZM59.4432 8.55123V15.9242H63.7477V15.0188H60.3906V12.6799H63.4186V11.7956H60.3906V9.45855H63.7477V8.5512L59.4432 8.55123ZM69.7838 9.45858V8.55123H64.7173V9.45858H66.7769V15.9241H67.7243V9.45858H69.7838ZM74.3706 8.55123H73.4232V15.9242H74.3706V8.55123ZM80.6242 9.45858V8.55123H75.5579V9.45858H77.6173V15.9241H78.5647V9.45858H80.6242ZM90.1848 9.51027C89.4536 8.75802 88.5579 8.38672 87.4879 8.38672C86.4161 8.38672 85.5204 8.75801 84.7892 9.49878C84.058 10.23 83.6982 11.1468 83.6982 12.2377C83.6982 13.3286 84.058 14.2455 84.7892 14.9768C85.5203 15.7174 86.4161 16.0888 87.4879 16.0888C88.5482 16.0888 89.4536 15.7174 90.1848 14.9768C90.916 14.2456 91.2757 13.3287 91.2757 12.2377C91.2757 11.1563 90.916 10.2413 90.1848 9.51027ZM85.4687 10.1265C86.0142 9.57151 86.6841 9.29394 87.4879 9.29394C88.2899 9.29394 88.9598 9.57152 89.4958 10.1265C90.0412 10.672 90.3091 11.384 90.3091 12.2377C90.3091 13.0933 90.0412 13.8033 89.4958 14.3489C88.9598 14.9039 88.2899 15.1833 87.4879 15.1833C86.6841 15.1833 86.0141 14.9039 85.4687 14.3489C84.9346 13.7919 84.6667 13.0933 84.6667 12.2377C84.6667 11.384 84.9346 10.6835 85.4687 10.1265ZM93.5267 11.3324L93.4866 9.91018H93.5267L97.2744 15.9241H98.2639V8.55116H97.3165V12.8654L97.3566 14.2876H97.3165L93.7334 8.55116H92.5793V15.9241H93.5267V11.3324Z" fill="white" stroke="white" strokeWidth="0.244995" stroke-miterlimit="10"/>
</g>
<defs>
<clipPath id="clip0_4664_9136">
<rect width="165.376" height="49" fill="white"/>
</clipPath>
</defs>
</svg>
