<svg width="172" height="29" viewBox="0 0 172 29" fill="none" xmlns="http://www.w3.org/2000/svg">
<g clip-path="url(#clip0_4664_9200)">
<path d="M5.08984 14.8727L27.7943 8.79461H7.31851L5.08984 14.8727ZM4.78467 15.705L3.83083 18.3063H3.83215L1.52001 24.7584L27.9807 9.49525L4.78467 15.705ZM1.14184 25.8136L0 29H9.44921L28.3432 10.1234L1.14184 25.8136ZM10.4755 29H18.2454L28.8595 10.6329L10.4755 29ZM19.0834 29H24.6584L29.4865 10.9977L19.0834 29ZM25.4097 29H30.1873V11.1862L25.4097 29ZM30.9129 29H35.6909L30.9129 11.1848V29ZM36.3742 28.7465L37.9322 24.3987C38.1673 23.7425 38.2511 23.0512 38.1879 22.3736L31.614 10.9976L36.3742 28.7465ZM36.5299 18.0543C37.3118 17.8529 38.0529 17.5354 38.7302 17.1175L32.2431 10.6363L36.5299 18.0543ZM39.34 16.7013C40.001 16.2039 40.5856 15.6034 41.068 14.9178L32.7558 10.1231L39.34 16.7013ZM41.4581 14.3057C41.6817 13.9169 41.8744 13.5056 42.0325 13.0745L42.4311 11.9876L33.1164 9.49402L41.4581 14.3057ZM42.6817 11.3041L43.6018 8.79461H33.3076L42.6817 11.3041ZM43.8676 8.06961L44.6828 5.84632C44.7905 5.55283 44.8645 5.25755 44.9074 4.96396L33.3063 8.06961H43.8676ZM44.95 4.20197C44.9128 3.08822 44.4415 2.04577 43.6783 1.27778L33.1171 7.3697L44.95 4.20197ZM43.0885 0.780832C42.3918 0.292372 41.538 0 40.5946 0H39.5021L32.7538 6.74206L43.0885 0.780832ZM38.4758 0H35.8419L32.2439 6.2262L38.4758 0ZM35.004 0H33.1873L31.6141 5.86611L35.004 0ZM32.4361 0H30.9129V5.67923L32.4361 0ZM30.1873 0H28.6645L30.1873 5.67787V0ZM27.9132 0H26.0966L29.4864 5.86594L27.9132 0ZM25.2587 0H22.6233L28.8587 6.22961L25.2587 0ZM21.5971 0H16.6572L28.3451 6.74181L21.5971 0ZM7.58437 8.06961H27.7956L9.39093 3.14262L7.58437 8.06961ZM9.64489 2.46004L27.9801 7.36839L15.2059 0H13.3317C11.7129 0 10.2605 0.975995 9.64489 2.46004Z" fill="#6D6D6D"/>
<path d="M140.524 9.03125H146.921L152.875 19.3008L158.847 9.03125H165.245V22.5185H162.239V9.1661L154.474 22.5185H151.295L143.511 9.1661V22.5185H140.524V9.03125Z" fill="#6D6D6D"/>
<path d="M121.257 17.2777C118.983 17.2777 117.152 15.4473 117.152 13.1545C117.152 10.8809 118.983 9.03125 121.257 9.03125H138.694V12.037H121.257C120.64 12.037 120.139 12.5379 120.139 13.1545C120.139 13.7903 120.64 14.2913 121.257 14.2913H134.57C136.844 14.2913 138.694 16.1217 138.694 18.4145C138.694 20.6881 136.844 22.5185 134.57 22.5185H117.152V19.532H134.57C135.187 19.532 135.688 19.031 135.688 18.4145C135.688 17.7787 135.187 17.2777 134.57 17.2777H121.257Z" fill="#6D6D6D"/>
<path d="M110.335 9.03125C113.224 9.03125 115.575 11.3818 115.575 14.2913C115.575 17.1814 113.224 19.532 110.335 19.532H96.8473V22.5185H93.8604V9.03125H110.335ZM110.315 16.5263C111.568 16.5263 112.57 15.5243 112.57 14.2913C112.57 13.0389 111.568 12.037 110.315 12.037H96.8473V16.5263H110.315Z" fill="#6D6D6D"/>
<path d="M77.7956 12.037C75.7148 12.037 74.0379 13.7132 74.0379 15.7748C74.0379 17.8557 75.7148 19.532 77.7956 19.532H88.9323V17.1814H77.5063V14.1949H91.9374V22.5185H77.7956C74.0575 22.5185 71.0518 19.5127 71.0518 15.7748C71.0518 12.0562 74.0575 9.03125 77.7956 9.03125H91.9374V12.037H77.7956Z" fill="#6D6D6D"/>
<path d="M51.7129 22.5185V9.03125H54.6994V19.532H69.7858V22.5185H51.7129Z" fill="#6D6D6D"/>
<path d="M170.838 8.27773C170.838 9.24575 170.054 10.0306 169.086 10.0306C168.117 10.0306 167.333 9.24575 167.333 8.27773C167.333 7.30964 168.117 6.5249 169.086 6.5249C170.054 6.5249 170.838 7.30964 170.838 8.27773Z" fill="#6D6D6D"/>
</g>
<defs>
<clipPath id="clip0_4664_9200">
<rect width="171.1" height="29" fill="white"/>
</clipPath>
</defs>
</svg>
