<svg width="311" height="261" viewBox="0 0 311 261" fill="none" xmlns="http://www.w3.org/2000/svg">
<path d="M179.641 259.235V177.1C179.641 130.074 190.584 91.4218 212.472 61.1446C235.003 30.2233 267.512 10.2533 310 1.23456V54.3806C289.4 59.5342 273.306 69.1971 261.719 83.3694C250.131 96.8975 243.05 113.647 240.475 133.617H290.688V259.235H179.641ZM1 259.235V177.1C1 130.074 11.9437 91.4218 33.8312 61.1446C56.3625 30.2233 88.8719 10.2533 131.359 1.23456V54.3806C110.759 59.5342 94.6656 69.1971 83.0781 83.3694C71.4906 96.8975 64.4094 113.647 61.8344 133.617H112.047V259.235H1Z" fill="#F3EEEF"/>
<path d="M131.859 54.7707L131.48 54.8654C110.968 59.9972 94.9737 69.6097 83.4648 83.6857L83.458 83.6945C72.051 97.0119 65.0313 113.479 62.4072 133.116H112.547V259.735H0.5V177.1C0.5 129.996 11.4624 91.234 33.4258 60.8517L33.4268 60.8498C56.0405 29.8152 88.6652 9.78592 131.256 0.7453L131.859 0.617371V54.7707ZM310.5 54.7707L310.121 54.8654C289.608 59.9972 273.614 69.6097 262.105 83.6857L262.099 83.6945C250.692 97.0119 243.672 113.479 241.048 133.116H291.188V259.735H179.141V177.1C179.141 129.996 190.103 91.234 212.066 60.8517L212.067 60.8498C234.681 29.8152 267.306 9.78592 309.896 0.7453L310.5 0.617371V54.7707Z" stroke="url(#paint0_linear_4664_8822)" stroke-opacity="0.25"/>
<defs>
<linearGradient id="paint0_linear_4664_8822" x1="155.5" y1="1.23456" x2="155.5" y2="259.235" gradientUnits="userSpaceOnUse">
<stop/>
<stop offset="1" stop-color="#666666" stop-opacity="0"/>
</linearGradient>
</defs>
</svg>
