<svg width="12" height="12" viewBox="0 0 12 12" fill="none" xmlns="http://www.w3.org/2000/svg">
<path d="M5.4477 0.276289C5.56744 -0.0922355 6.08881 -0.0922353 6.20855 0.276289L7.30992 3.66596C7.36347 3.83077 7.51705 3.94235 7.69034 3.94235H11.2544C11.6419 3.94235 11.803 4.4382 11.4896 4.66596L8.60614 6.76089C8.46594 6.86274 8.40728 7.04329 8.46083 7.2081L9.5622 10.5978C9.68194 10.9663 9.26015 11.2727 8.94666 11.045L6.06324 8.95005C5.92304 8.84819 5.73321 8.84819 5.59301 8.95005L2.70959 11.045C2.3961 11.2727 1.97431 10.9663 2.09405 10.5978L3.19542 7.2081C3.24897 7.04329 3.19031 6.86274 3.05011 6.76089L0.166688 4.66596C-0.146797 4.4382 0.0143131 3.94235 0.401802 3.94235H3.96591C4.1392 3.94235 4.29278 3.83077 4.34633 3.66596L5.4477 0.276289Z" fill="#6D6D6D"/>
</svg>
